HIERARCHY
ROOT joint_Root
{
	OFFSET 0.0 0.0 0.0
	CHANNELS 6 Xposition Yposition Zposition Zrotation Xrotation Yrotation 
	JOINT Hips
	{
		OFFSET -17.1583 93.1646 452.98
		CHANNELS 6 Xposition Yposition Zposition Zrotation Xrotation Yrotation 
		JOINT Spine
		{
			OFFSET 15.7357 0.0 0.0
			CHANNELS 6 Xposition Yposition Zposition Zrotation Xrotation Yrotation 
			JOINT Chest
			{
				OFFSET 8.98455 -0.406207 0.0
				CHANNELS 6 Xposition Yposition Zposition Zrotation Xrotation Yrotation 
				JOINT Neck
				{
					OFFSET 16.3773 0.0 0.0
					CHANNELS 6 Xposition Yposition Zposition Zrotation Xrotation Yrotation 
					JOINT Head
					{
						OFFSET 6.45672 0.0 0.0
						CHANNELS 6 Xposition Yposition Zposition Zrotation Xrotation Yrotation 
						End Site
						{
							OFFSET 0.0 0.0 0.0
						}
					}
				}
				JOINT Shoulder_L
				{
					OFFSET 12.9942 -0.242716 4.98039
					CHANNELS 6 Xposition Yposition Zposition Zrotation Xrotation Yrotation 
					JOINT UpperArm_L
					{
						OFFSET 5.34809 0.0 0.0
						CHANNELS 6 Xposition Yposition Zposition Zrotation Xrotation Yrotation 
						JOINT LowerArm_L
						{
							OFFSET 24.3286 1.87007e-05 0.0
							CHANNELS 6 Xposition Yposition Zposition Zrotation Xrotation Yrotation 
							JOINT Hand_L
							{
								OFFSET 22.2916 0.0 0.0
								CHANNELS 6 Xposition Yposition Zposition Zrotation Xrotation Yrotation 
								End Site
								{
									OFFSET 0.0 0.0 0.0
								}
							}
						}
					}
				}
				JOINT Shoulder_R
				{
					OFFSET 12.9945 -0.242716 -4.98039
					CHANNELS 6 Xposition Yposition Zposition Zrotation Xrotation Yrotation 
					JOINT UpperArm_R
					{
						OFFSET -5.34813 0.0 0.0
						CHANNELS 6 Xposition Yposition Zposition Zrotation Xrotation Yrotation 
						JOINT LowerArm_R
						{
							OFFSET -24.3289 0.000322201 0.0
							CHANNELS 6 Xposition Yposition Zposition Zrotation Xrotation Yrotation 
							JOINT Hand_R
							{
								OFFSET -22.2915 -0.000108084 0.0
								CHANNELS 6 Xposition Yposition Zposition Zrotation Xrotation Yrotation 
								End Site
								{
									OFFSET 0.0 0.0 0.0
								}
							}
						}
					}
				}
			}
		}
		JOINT UpperLeg_L
		{
			OFFSET -2.19248 -6.46944 0.0
			CHANNELS 6 Xposition Yposition Zposition Zrotation Xrotation Yrotation 
			JOINT LowerLeg_L
			{
				OFFSET 39.0811 0.0 -1.23785e-05
				CHANNELS 6 Xposition Yposition Zposition Zrotation Xrotation Yrotation 
				JOINT Foot_L
				{
					OFFSET 40.9854 0.0 -1.26872e-05
					CHANNELS 6 Xposition Yposition Zposition Zrotation Xrotation Yrotation 
					JOINT Toes_L
					{
						OFFSET 11.7543 0.0 0.0
						CHANNELS 6 Xposition Yposition Zposition Zrotation Xrotation Yrotation 
						End Site
						{
							OFFSET 0.0 0.0 0.0
						}
					}
				}
			}
		}
		JOINT UpperLeg_R
		{
			OFFSET -2.19251 6.46944 0.0
			CHANNELS 6 Xposition Yposition Zposition Zrotation Xrotation Yrotation 
			JOINT LowerLeg_R
			{
				OFFSET -39.0811 -0.00228153 -0.0401928
				CHANNELS 6 Xposition Yposition Zposition Zrotation Xrotation Yrotation 
				JOINT Foot_R
				{
					OFFSET -40.9854 0.0 0.0
					CHANNELS 6 Xposition Yposition Zposition Zrotation Xrotation Yrotation 
					JOINT Toes_R
					{
						OFFSET -11.7543 0.0 0.0
						CHANNELS 6 Xposition Yposition Zposition Zrotation Xrotation Yrotation 
						End Site
						{
							OFFSET 0.0 0.0 0.0
						}
					}
				}
			}
		}
	}
}
MOTION
Frames:	5
Frame Time:	0.0333333
0.000000 0.000000 0.000000 0.000000 0.000000 -0.000000 1.225770 93.098700 -1.285930 89.388700 0.564022 4.366880 15.735700 0.000005 -0.000001 70.229300 86.310700 -61.475100 8.984550 -0.406207 -0.000000 -0.522657 -3.125060 17.489700 16.377300 -0.000001 -0.000001 6.582950 6.265040 5.775500 6.456720 -0.000001 -0.000000 -16.967100 -0.087535 20.003200 12.994200 -0.242716 4.980390 -86.800800 -6.812110 -64.768600 5.348090 -0.000007 -0.000001 -46.323000 -61.083600 -87.572200 24.328600 0.000019 0.000005 0.132609 13.192300 -0.580821 22.291600 -0.000001 0.000005 42.140600 4.375430 18.613500 12.994500 -0.242716 -4.980390 88.700900 3.659130 -70.438100 -5.348130 -0.000001 -0.000004 -56.904600 9.874590 -9.969610 -24.328900 0.000322 -0.000009 1.835850 7.152140 -14.444600 -22.291500 -0.000108 -0.000004 6.168060 5.234920 1.828090 -2.192480 -6.469440 -0.000000 -174.650000 -13.038900 1.498100 39.081100 -0.000007 -0.000012 0.020890 -0.071748 16.233800 40.985400 -0.000006 -0.000013 1.483270 19.433500 -68.207200 11.754300 -0.000000 0.000003 -0.000668 0.178199 -9.348520 -2.192510 6.469440 -0.000001 174.401000 8.250750 -177.096000 -39.081100 -0.002282 -0.040193 0.030383 -0.111744 13.608200 -40.985400 0.000008 0.000006 -5.226950 6.003450 -67.599700 -11.754300 -0.000006 -0.000006 -0.011714 0.283692 -5.044040
0.000000 0.000000 0.000000 0.000000 0.000000 -0.000000 1.228330 93.092600 -1.253150 89.347700 0.744519 4.468080 15.735700 0.000005 -0.000001 70.637200 86.297800 -61.981600 8.984550 -0.406207 -0.000000 -0.488504 -3.074540 17.293500 16.377300 -0.000001 -0.000001 6.561420 6.154190 5.861740 6.456720 -0.000001 -0.000000 -16.968000 -0.332952 20.367500 12.994200 -0.242716 4.980390 -86.792800 -6.802060 -64.680700 5.348090 -0.000007 -0.000001 -46.083700 -60.921600 -87.557900 24.328600 0.000019 0.000005 0.176764 13.221700 -0.772578 22.291600 -0.000001 0.000005 42.197900 4.388160 18.411600 12.994500 -0.242716 -4.980390 88.716900 3.612660 -70.432200 -5.348130 -0.000001 -0.000004 -56.879400 9.768780 -9.851560 -24.328900 0.000322 -0.000009 1.834880 7.152790 -14.436100 -22.291500 -0.000108 -0.000004 6.234700 5.233640 1.861130 -2.192480 -6.469440 -0.000000 -174.610000 -12.909100 1.544300 39.081100 -0.000007 -0.000012 0.022096 -0.075372 16.339400 40.985400 -0.000006 -0.000013 1.522380 19.458700 -68.283500 11.754300 -0.000000 0.000003 -0.000719 0.178965 -9.317380 -2.192510 6.469440 -0.000001 174.390000 8.377990 -176.902000 -39.081100 -0.002282 -0.040193 0.028138 -0.103065 13.532400 -40.985400 0.000008 0.000006 -5.317800 6.031650 -67.520000 -11.754300 -0.000006 -0.000006 -0.011047 0.278967 -5.237500
0.000000 0.000000 0.000000 0.000000 0.000000 -0.000000 1.235680 93.088300 -1.237350 89.344600 0.883824 4.501560 15.735700 0.000005 -0.000001 70.709900 86.310000 -62.144200 8.984550 -0.406207 -0.000000 -0.513838 -3.053090 17.113200 16.377300 -0.000001 -0.000001 6.600240 6.131760 5.975240 6.456720 -0.000001 -0.000000 -16.963000 -0.457310 20.654400 12.994200 -0.242716 4.980390 -86.795800 -6.773710 -64.609600 5.348090 -0.000007 -0.000001 -45.914900 -60.780500 -87.577200 24.328600 0.000019 0.000005 0.209183 13.613500 -0.888457 22.291600 -0.000001 0.000005 42.266300 4.395120 18.301000 12.994500 -0.242716 -4.980390 88.718500 3.598130 -70.381500 -5.348130 -0.000001 -0.000004 -56.853800 9.782450 -9.837080 -24.328900 0.000322 -0.000009 1.824060 7.176830 -14.308600 -22.291500 -0.000108 -0.000004 6.229820 5.234060 1.850290 -2.192480 -6.469440 -0.000000 -174.613000 -12.756800 1.537030 39.081100 -0.000007 -0.000012 0.021871 -0.074340 16.394400 40.985400 -0.000006 -0.000013 1.526480 19.444200 -68.332400 11.754300 -0.000000 0.000003 -0.000902 0.181638 -9.208790 -2.192510 6.469440 -0.000001 174.366000 8.519270 -176.840000 -39.081100 -0.002282 -0.040193 0.027564 -0.100599 13.543000 -40.985400 0.000008 0.000006 -5.354990 6.005970 -67.520400 -11.754300 -0.000006 -0.000006 -0.011340 0.281062 -5.151720
0.000000 0.000000 0.000000 0.000000 0.000000 -0.000000 1.252470 93.084800 -1.214500 89.337700 0.989529 4.481810 15.735700 0.000005 -0.000001 70.770900 86.333700 -62.284400 8.984550 -0.406207 -0.000000 -0.561119 -3.027940 16.953700 16.377300 -0.000001 -0.000001 6.641810 6.164610 5.998020 6.456720 -0.000001 -0.000000 -16.987100 -0.518713 21.040300 12.994200 -0.242716 4.980390 -86.783300 -6.774730 -64.525900 5.348090 -0.000007 -0.000001 -46.156100 -60.686600 -87.907500 24.328600 0.000019 0.000005 0.231149 14.119700 -0.947248 22.291600 -0.000001 0.000005 41.956100 4.396720 18.275500 12.994500 -0.242716 -4.980390 88.728500 3.564390 -70.352200 -5.348130 -0.000001 -0.000004 -56.965900 9.801780 -9.792890 -24.328900 0.000322 -0.000009 1.846940 7.287810 -14.270300 -22.291500 -0.000108 -0.000004 6.185720 5.231600 1.914090 -2.192480 -6.469440 -0.000000 -174.619000 -12.708500 1.494140 39.081100 -0.000007 -0.000012 0.021930 -0.074383 16.427400 40.985400 -0.000006 -0.000013 1.552810 19.505400 -68.328300 11.754300 -0.000000 0.000003 -0.000722 0.179006 -9.315730 -2.192510 6.469440 -0.000001 174.358000 8.560660 -176.799000 -39.081100 -0.002282 -0.040193 0.027195 -0.099448 13.492700 -40.985400 0.000008 0.000006 -5.347160 5.995480 -67.508000 -11.754300 -0.000006 -0.000006 -0.011121 0.279502 -5.215570
0.000000 0.000000 0.000000 0.000000 0.000000 -0.000000 1.252520 93.089400 -1.197910 89.350700 1.059430 4.478140 15.735700 0.000005 -0.000001 70.824700 86.349200 -62.403600 8.984550 -0.406207 -0.000000 -0.592104 -3.008880 16.822300 16.377300 -0.000001 -0.000001 6.677900 6.265270 5.999580 6.456720 -0.000001 -0.000000 -16.997400 -0.482353 21.329200 12.994200 -0.242716 4.980390 -86.775900 -6.774400 -64.473700 5.348090 -0.000007 -0.000001 -46.060200 -60.632000 -87.860600 24.328600 0.000019 0.000005 0.232043 14.086300 -0.953117 22.291600 -0.000001 0.000005 41.854100 4.408340 18.090100 12.994500 -0.242716 -4.980390 88.730400 3.560780 -70.361200 -5.348130 -0.000001 -0.000004 -57.127500 9.789970 -9.693990 -24.328900 0.000322 -0.000009 1.818930 7.145110 -14.330500 -22.291500 -0.000108 -0.000004 6.146520 5.230980 1.930260 -2.192480 -6.469440 -0.000000 -174.642000 -12.618400 1.536340 39.081100 -0.000007 -0.000012 0.021839 -0.074425 16.353800 40.985400 -0.000006 -0.000013 1.541360 19.486600 -68.317600 11.754300 -0.000000 0.000003 -0.000757 0.179517 -9.294940 -2.192510 6.469440 -0.000001 174.320000 8.709590 -176.745000 -39.081100 -0.002282 -0.040193 0.026387 -0.096579 13.425600 -40.985400 0.000008 0.000006 -5.345840 6.038050 -67.479800 -11.754300 -0.000006 -0.000006 -0.011160 0.279775 -5.204420
